<svg width="24" height="24" viewBox="0 0 24 24" fill="none" xmlns="http://www.w3.org/2000/svg">
<path d="M22.1484 9.65625H16.1484C16.0453 9.65625 15.9609 9.74062 15.9609 9.84375V10.9688C15.9609 11.0719 16.0453 11.1562 16.1484 11.1562H22.1484C22.2516 11.1562 22.3359 11.0719 22.3359 10.9688V9.84375C22.3359 9.74062 22.2516 9.65625 22.1484 9.65625ZM19.0078 12.8438H16.1484C16.0453 12.8438 15.9609 12.9281 15.9609 13.0312V14.1562C15.9609 14.2594 16.0453 14.3438 16.1484 14.3438H19.0078C19.1109 14.3438 19.1953 14.2594 19.1953 14.1562V13.0312C19.1953 12.9281 19.1109 12.8438 19.0078 12.8438ZM11.1867 7.55859H10.1719C10.0266 7.55859 9.90936 7.67578 9.90936 7.82109V13.6336C9.90936 13.718 9.94921 13.7953 10.0172 13.8445L13.507 16.3898C13.6242 16.4742 13.7883 16.4508 13.8726 16.3336L14.475 15.5109V15.5086C14.5594 15.3914 14.5336 15.2273 14.4164 15.143L11.4469 12.9961V7.82109C11.4492 7.67578 11.3297 7.55859 11.1867 7.55859Z" fill="#09B451"/>
<path d="M18.8625 15.7945H17.5078C17.3765 15.7945 17.2523 15.8625 17.182 15.975C16.8844 16.4461 16.5375 16.882 16.139 17.2805C15.4523 17.9672 14.6531 18.5063 13.7648 18.8813C12.8437 19.2703 11.8664 19.4672 10.8586 19.4672C9.84842 19.4672 8.87108 19.2703 7.95233 18.8813C7.06405 18.5063 6.26483 17.9672 5.57811 17.2805C4.89139 16.5938 4.35233 15.7945 3.97733 14.9063C3.58827 13.9875 3.39139 13.0102 3.39139 12C3.39139 10.9899 3.58827 10.0149 3.97733 9.09377C4.35233 8.20549 4.89139 7.40627 5.57811 6.71955C6.26483 6.03283 7.06405 5.49377 7.95233 5.11877C8.87108 4.72971 9.85077 4.53283 10.8586 4.53283C11.8687 4.53283 12.8461 4.72971 13.7648 5.11877C14.6531 5.49377 15.4523 6.03283 16.139 6.71955C16.5375 7.11799 16.8844 7.55393 17.182 8.02502C17.2523 8.13752 17.3765 8.20549 17.5078 8.20549H18.8625C19.0242 8.20549 19.1273 8.03674 19.0547 7.89377C17.5265 4.85393 14.4281 2.87814 10.9687 2.8383C5.90389 2.77502 1.69686 6.92111 1.68749 11.9813C1.67811 17.0508 5.7867 21.1641 10.8562 21.1641C14.3601 21.1641 17.5101 19.1813 19.0547 16.1063C19.1273 15.9633 19.0219 15.7945 18.8625 15.7945Z" fill="#09B451"/>
</svg>
