<svg width="29" height="29" viewBox="0 0 29 29" fill="none" xmlns="http://www.w3.org/2000/svg">
<path d="M10.2285 9.39999V5.8857C10.2285 5.26434 10.4753 4.66842 10.9147 4.22905C11.3541 3.78968 11.95 3.54285 12.5713 3.54285H17.2571C17.8784 3.54285 18.4743 3.78968 18.9137 4.22905C19.3531 4.66842 19.5999 5.26434 19.5999 5.8857V9.39999H23.1142C23.7356 9.39999 24.3315 9.64683 24.7708 10.0862C25.2102 10.5256 25.4571 11.1215 25.4571 11.7428V22.2857C25.4571 22.9071 25.2102 23.503 24.7708 23.9424C24.3315 24.3817 23.7356 24.6286 23.1142 24.6286H6.7142C6.09283 24.6286 5.49692 24.3817 5.05754 23.9424C4.61817 23.503 4.37134 22.9071 4.37134 22.2857V11.7428C4.37134 11.1215 4.61817 10.5256 5.05754 10.0862C5.49692 9.64683 6.09283 9.39999 6.7142 9.39999H10.2285ZM6.7142 11.7428V22.2857H23.1142V11.7428H19.5976V15.2571H17.2571V11.7428H12.5713V15.2571H10.2285V11.7428H6.7142ZM12.5713 9.39999H17.2571V5.8857H12.5713V9.39999Z" fill="#09B451"/>
</svg>
