<svg width="30" height="30" viewBox="0 0 30 30" fill="none" xmlns="http://www.w3.org/2000/svg">
<path fill-rule="evenodd" clip-rule="evenodd" d="M9.06251 21.25L18.4375 15L9.06251 8.75003C8.93939 8.66795 8.83365 8.56243 8.75131 8.43949C8.66898 8.31654 8.61167 8.17859 8.58265 8.0335C8.55363 7.88841 8.55348 7.73902 8.58219 7.59387C8.61091 7.44872 8.66793 7.31064 8.75001 7.18753C8.83208 7.06441 8.9376 6.95867 9.06055 6.87634C9.18349 6.794 9.32144 6.73669 9.46653 6.70767C9.61163 6.67865 9.76101 6.6785 9.90616 6.70721C10.0513 6.73593 10.1894 6.79295 10.3125 6.87503L20.94 13.96C21.1112 14.0742 21.2516 14.2288 21.3487 14.4103C21.4457 14.5917 21.4965 14.7943 21.4965 15C21.4965 15.2058 21.4457 15.4084 21.3487 15.5898C21.2516 15.7712 21.1112 15.9259 20.94 16.04L10.3125 23.125C10.1894 23.2071 10.0513 23.2641 9.90616 23.2928C9.76101 23.3216 9.61163 23.3214 9.46653 23.2924C9.32144 23.2634 9.18349 23.2061 9.06055 23.1237C8.9376 23.0414 8.83208 22.9356 8.75001 22.8125C8.66793 22.6894 8.61091 22.5513 8.58219 22.4062C8.55348 22.261 8.55363 22.1116 8.58265 21.9666C8.61167 21.8215 8.66898 21.6835 8.75131 21.5606C8.83365 21.4376 8.93939 21.3321 9.06251 21.25Z" fill="#09B451"/>
</svg>
