<svg width="30" height="30" viewBox="0 0 30 30" fill="none" xmlns="http://www.w3.org/2000/svg">
<path fill-rule="evenodd" clip-rule="evenodd" d="M20.9375 21.25L11.5625 15L20.9375 8.75003C21.0606 8.66795 21.1664 8.56243 21.2487 8.43949C21.331 8.31654 21.3883 8.17859 21.4174 8.0335C21.4464 7.88841 21.4465 7.73902 21.4178 7.59387C21.3891 7.44872 21.3321 7.31064 21.25 7.18753C21.1679 7.06441 21.0624 6.95867 20.9395 6.87634C20.8165 6.794 20.6786 6.73669 20.5335 6.70767C20.3884 6.67865 20.239 6.6785 20.0939 6.70721C19.9487 6.73593 19.8106 6.79295 19.6875 6.87503L9.06001 13.96C8.88881 14.0742 8.74844 14.2288 8.65136 14.4103C8.55427 14.5917 8.50348 14.7943 8.50348 15C8.50348 15.2058 8.55427 15.4084 8.65136 15.5898C8.74844 15.7712 8.88881 15.9259 9.06001 16.04L19.6875 23.125C19.8106 23.2071 19.9487 23.2641 20.0939 23.2928C20.239 23.3216 20.3884 23.3214 20.5335 23.2924C20.6786 23.2634 20.8165 23.2061 20.9395 23.1237C21.0624 23.0414 21.1679 22.9356 21.25 22.8125C21.3321 22.6894 21.3891 22.5513 21.4178 22.4062C21.4465 22.261 21.4464 22.1116 21.4174 21.9666C21.3883 21.8215 21.331 21.6835 21.2487 21.5606C21.1664 21.4376 21.0606 21.3321 20.9375 21.25Z" fill="#09B451"/>
</svg>
